<svg xmlns="http://www.w3.org/2000/svg" height="511pt" version="1.1" viewBox="0 -1 511.99943 511" width="511pt">
<g id="surface1">
<path d="M 83.648438 247.292969 C 75.164062 247.292969 68.28125 240.414062 68.28125 231.925781 L 68.28125 154.75 C 68.28125 95.789062 116.25 47.824219 175.210938 47.824219 L 316.886719 47.824219 C 325.375 47.824219 332.253906 54.703125 332.253906 63.191406 C 332.253906 71.679688 325.375 78.558594 316.886719 78.558594 L 175.210938 78.558594 C 133.199219 78.558594 99.015625 112.738281 99.015625 154.75 L 99.015625 231.925781 C 99.015625 240.414062 92.136719 247.292969 83.648438 247.292969 Z M 83.648438 247.292969 " style=" stroke:none;fill-rule:nonzero;fill:rgb(100%,63.137255%,48.235294%);fill-opacity:1;" />
<path d="M 290.242188 20.011719 L 353.832031 20.011719 C 361.871094 20.011719 368.390625 26.527344 368.390625 34.566406 L 368.390625 133.359375 L 275.683594 133.359375 L 275.683594 34.566406 C 275.683594 26.527344 282.203125 20.011719 290.242188 20.011719 Z M 290.242188 20.011719 " style=" stroke:none;fill-rule:nonzero;fill:rgb(100%,94.509804%,71.372549%);fill-opacity:1;" />
<path d="M 368.386719 34.570312 L 368.386719 133.355469 L 322.039062 133.355469 L 322.039062 20.011719 L 353.828125 20.011719 C 361.871094 20.011719 368.386719 26.527344 368.386719 34.570312 Z M 368.386719 34.570312 " style=" stroke:none;fill-rule:nonzero;fill:rgb(100%,89.411765%,46.666667%);fill-opacity:1;" />
<path d="M 238.652344 285.679688 L 405.421875 285.679688 L 405.421875 124.835938 C 405.421875 116.746094 398.863281 110.183594 390.769531 110.183594 L 253.304688 110.183594 C 245.210938 110.183594 238.652344 116.746094 238.652344 124.835938 Z M 238.652344 285.679688 " style=" stroke:none;fill-rule:nonzero;fill:rgb(100%,85.490196%,26.666667%);fill-opacity:1;" />
<path d="M 405.425781 124.839844 L 405.425781 285.679688 L 322.039062 285.679688 L 322.039062 110.191406 L 390.773438 110.191406 C 398.859375 110.191406 405.425781 116.746094 405.425781 124.839844 Z M 405.425781 124.839844 " style=" stroke:none;fill-rule:nonzero;fill:rgb(100%,80.392157%,0%);fill-opacity:1;" />
<path d="M 511.785156 411.003906 C 511.785156 490.246094 463.207031 506.203125 394.210938 509.257812 C 371.960938 510.25 347.585938 509.902344 322.042969 509.902344 C 296.488281 509.902344 272.125 510.25 249.878906 509.257812 C 180.867188 506.203125 132.289062 490.246094 132.289062 411.003906 C 132.289062 320.101562 196.199219 244.144531 281.539062 225.597656 C 294.59375 222.753906 308.144531 221.261719 322.042969 221.261719 C 335.941406 221.261719 349.496094 222.753906 362.550781 225.597656 C 447.875 244.144531 511.785156 320.101562 511.785156 411.003906 Z M 511.785156 411.003906 " style=" stroke:none;fill-rule:nonzero;fill:rgb(100%,63.137255%,48.235294%);fill-opacity:1;" />
<path d="M 399.359375 436.199219 C 399.359375 467.535156 397.535156 491.273438 394.203125 509.257812 C 371.957031 510.25 347.582031 509.902344 322.035156 509.902344 C 296.480469 509.902344 272.117188 510.25 249.871094 509.257812 C 246.539062 491.277344 244.710938 467.535156 244.710938 436.199219 C 244.710938 347.160156 259.433594 269.121094 281.53125 225.597656 C 294.585938 222.753906 308.136719 221.261719 322.035156 221.261719 C 335.933594 221.261719 349.488281 222.753906 362.542969 225.597656 C 384.640625 269.121094 399.359375 347.160156 399.359375 436.199219 Z M 399.359375 436.199219 " style=" stroke:none;fill-rule:nonzero;fill:rgb(100%,43.921569%,21.568627%);fill-opacity:1;" />
<path d="M 492.332031 119.195312 L 417.40625 97.390625 C 409.257812 95.023438 404.574219 86.492188 406.945312 78.34375 C 409.316406 70.191406 417.847656 65.507812 425.996094 67.882812 L 500.921875 89.683594 C 509.070312 92.054688 513.753906 100.585938 511.382812 108.734375 C 509.007812 116.898438 500.464844 121.566406 492.332031 119.195312 Z M 492.332031 119.195312 " style=" stroke:none;fill-rule:nonzero;fill:rgb(100%,53.333333%,34.901961%);fill-opacity:1;" />
<path d="M 406.949219 41.96875 C 404.574219 33.820312 409.257812 25.292969 417.410156 22.921875 L 492.332031 1.117188 C 500.480469 -1.257812 509.011719 3.429688 511.382812 11.578125 C 513.753906 19.726562 509.070312 28.257812 500.921875 30.628906 L 425.996094 52.433594 C 417.832031 54.808594 409.3125 50.105469 406.949219 41.96875 Z M 406.949219 41.96875 " style=" stroke:none;fill-rule:nonzero;fill:rgb(100%,63.137255%,48.235294%);fill-opacity:1;" />
<path d="M 167.292969 230.210938 C 167.292969 239.09375 163.902344 247.976562 157.132812 254.761719 L 96.582031 315.308594 C 93.007812 318.875 88.34375 320.667969 83.652344 320.667969 C 78.96875 320.667969 74.289062 318.886719 70.710938 315.308594 L 10.171875 254.761719 C -3.390625 241.207031 -3.390625 219.210938 10.171875 205.65625 C 16.945312 198.871094 25.839844 195.480469 34.730469 195.480469 C 43.613281 195.480469 52.496094 198.871094 59.277344 205.65625 L 83.652344 230.019531 L 108.015625 205.65625 C 121.582031 192.089844 143.566406 192.089844 157.132812 205.65625 C 163.902344 212.425781 167.292969 221.320312 167.292969 230.210938 Z M 167.292969 230.210938 " style=" stroke:none;fill-rule:nonzero;fill:rgb(100%,39.215686%,14.901961%);fill-opacity:1;" />
<path d="M 511.78125 411 C 511.78125 490.246094 463.207031 506.199219 394.207031 509.253906 C 371.953125 510.246094 347.582031 509.90625 322.039062 509.90625 L 322.039062 221.257812 C 335.929688 221.257812 349.484375 222.753906 362.546875 225.59375 C 377.578125 228.859375 391.953125 233.910156 405.425781 240.519531 C 468.414062 271.378906 511.78125 336.117188 511.78125 411 Z M 511.78125 411 " style=" stroke:none;fill-rule:nonzero;fill:rgb(100%,53.333333%,34.901961%);fill-opacity:1;" />
<path d="M 399.359375 436.203125 C 399.359375 467.535156 397.535156 491.273438 394.207031 509.253906 C 371.953125 510.246094 347.582031 509.90625 322.039062 509.90625 L 322.039062 221.257812 C 335.929688 221.257812 349.484375 222.753906 362.546875 225.59375 C 370.582031 241.429688 377.648438 261.839844 383.367188 285.679688 C 393.398438 327.367188 399.359375 379.558594 399.359375 436.203125 Z M 399.359375 436.203125 " style=" stroke:none;fill-rule:nonzero;fill:rgb(100%,29.803922%,1.568627%);fill-opacity:1;" />
<path d="M 338.636719 62.527344 C 338.636719 71.699219 331.207031 79.136719 322.039062 79.136719 C 312.871094 79.136719 305.441406 71.699219 305.441406 62.527344 C 305.441406 53.359375 312.871094 45.929688 322.039062 45.929688 C 331.207031 45.929688 338.636719 53.359375 338.636719 62.527344 Z M 338.636719 62.527344 " style=" stroke:none;fill-rule:nonzero;fill:rgb(100%,85.490196%,26.666667%);fill-opacity:1;" />
<path d="M 338.636719 62.527344 C 338.636719 71.699219 331.207031 79.136719 322.039062 79.136719 L 322.039062 45.929688 C 331.207031 45.929688 338.636719 53.359375 338.636719 62.527344 Z M 338.636719 62.527344 " style=" stroke:none;fill-rule:nonzero;fill:rgb(100%,80.392157%,0%);fill-opacity:1;" />
<path d="M 167.292969 230.210938 C 167.292969 239.09375 163.902344 247.976562 157.132812 254.761719 L 96.582031 315.308594 C 93.007812 318.875 88.34375 320.667969 83.652344 320.667969 L 83.652344 230.019531 L 108.015625 205.65625 C 121.582031 192.089844 143.566406 192.089844 157.132812 205.65625 C 163.902344 212.425781 167.292969 221.320312 167.292969 230.210938 Z M 167.292969 230.210938 " style=" stroke:none;fill-rule:nonzero;fill:rgb(100%,29.803922%,1.568627%);fill-opacity:1;" />
</g>
</svg>