<svg height="512pt" viewBox="0 -8 512.00024 512" width="512pt" xmlns="http://www.w3.org/2000/svg"><path d="m414.125 224.128906v-96.179687c0-16.457031-13.394531-29.839844-29.851562-29.839844h-4.238282v-53.230469c0-16.410156-13.339844-29.75-29.746094-29.75h-56.371093c-16.394531 0-29.746094 13.339844-29.746094 29.75v8.8125h-88.015625c-58.609375 0-106.292969 47.683594-106.292969 106.292969v38.304687c-17.183593-12.21875-41.300781-10.757812-56.886719 4.828126-17.300781 17.304687-17.304687 45.308593 0 62.613281l61.359376 61.359375c5.960937 5.960937 15.640624 5.964844 21.605468 0l61.355469-61.359375c17.261719-17.261719 17.261719-45.351563 0-62.613281-15.574219-15.574219-39.683594-17.054688-56.878906-4.832032v-38.300781c0-41.765625 33.972656-75.742187 75.738281-75.742187h88.015625v13.867187h-4.238281c-16.457032 0-29.839844 13.382813-29.839844 29.839844v96.175781c-62.507812 34.707031-97.886719 99.410156-97.886719 166.09375 0 39.515625 12.074219 67.023438 36.914063 84.09375 19.390625 13.328125 45.078125 19.785156 85.894531 21.589844 20.9375.933594 110.355469 1.0625 134.183594 0 40.8125-1.808594 66.503906-8.265625 85.890625-21.589844 24.835937-17.074219 36.910156-44.578125 36.910156-84.09375 0-66.742188-35.429688-131.414062-97.875-166.089844zm-278.433594.59375c5.351563 5.347656 5.351563 14.054688 0 19.40625l-50.554687 50.554688-50.558594-50.554688c-5.359375-5.363281-5.359375-14.042968 0-19.40625 5.363281-5.363281 14.042969-5.363281 19.40625 0l20.347656 20.347656c5.964844 5.964844 15.640625 5.964844 21.605469 0l20.347656-20.347656c5.363282-5.363281 14.042969-5.363281 19.40625 0zm159.03125-179.039062h54.761719v52.429687h-54.761719c0-9.679687 0-39.96875 0-52.429687zm-34.078125 164.824218v-81.84375h122.925781v81.84375c-39.949218-13.621093-83.40625-13.492187-122.925781 0zm-97.882812 179.714844c0-63.863281 38.796875-121.136718 95.6875-146.082031-21.957031 66.980469-26.371094 164.214844-20.511719 219.960937-51.3125-5.050781-75.175781-21.503906-75.175781-73.878906zm106.121093 75.566406c-7.101562-57.628906-1.257812-170.785156 26.410157-232.640624 17.429687-2.941407 35.679687-3.035157 53.628906 0 27.394531 61.234374 33.613281 174.179687 26.410156 232.640624-17.957031.398438-94.527343.269532-106.449219 0zm137.398438-1.6875c6.121094-58.238281.960938-154.460937-20.511719-219.960937 56.878907 24.945313 95.675781 82.21875 95.675781 146.082031 0 52.378906-23.863281 68.824219-75.164062 73.878906zm0 0"/><path d="m416.910156 96.316406 74.480469 21.675782c8.082031 2.351562 16.574219-2.285157 18.9375-10.402344 2.355469-8.101563-2.300781-16.578125-10.398437-18.933594l-74.480469-21.675781c-8.101563-2.359375-16.582031 2.296875-18.9375 10.398437-2.359375 8.101563 2.296875 16.578125 10.398437 18.9375zm0 0"/><path d="m425.449219 51.625 74.480469-21.675781c8.097656-2.355469 12.753906-10.835938 10.398437-18.9375-2.359375-8.101563-10.839844-12.757813-18.9375-10.398438l-74.480469 21.675781c-8.101562 2.355469-12.757812 10.832032-10.398437 18.933594 2.351562 8.089844 10.824219 12.761719 18.9375 10.402344zm0 0"/><path d="m337.386719 69.535156c0 8.4375-6.839844 15.277344-15.277344 15.277344s-15.277344-6.839844-15.277344-15.277344 6.839844-15.277344 15.277344-15.277344 15.277344 6.839844 15.277344 15.277344zm0 0"/></svg>